<svg xmlns="http://www.w3.org/2000/svg" width="193" height="26" viewBox="0 0 193 26" fill="none"><g clip-path="url(#clip0_2593_254)"><path d="M19.6827 16.8273C9.81881 25.3666 5.91387 13.0939 0.790039 6.88268C10.654 -1.65944 14.5589 10.6161 19.6827 16.8273Z" fill="#503AF2"></path><path d="M50.2333 7.10446C49.9737 6.93262 49.6605 6.94648 49.5308 7.13494L39.6781 21.5751C36.9441 17.7281 27.0858 3.86166 27.0858 3.86166C24.1317 -0.412172 18.6919 0.970866 15.3682 4.00579C15.3682 4.00579 28.6574 22.7004 28.6574 22.6976C31.6143 26.9714 37.0513 25.5884 40.375 22.5535L40.3722 22.5507L50.4703 7.75024C50.6001 7.56455 50.4929 7.27353 50.2333 7.10446Z" fill="#3866FF"></path><path d="M80.2178 7.33398L72.7155 22.8523H69.008L61.864 7.33398H66.1781L70.9295 18.4787L75.8473 7.33398H80.2178Z" fill="#00156A"></path><path d="M87.3327 2.8805C87.3327 3.74525 87.1183 4.37995 86.6866 4.7846C86.2577 5.18926 85.5834 5.39159 84.6664 5.39159C83.7128 5.39159 83.0356 5.19757 82.6321 4.81232C82.2287 4.42706 82.0283 3.78128 82.0283 2.88327C82.0283 2.01853 82.2343 1.38937 82.6462 0.993029C83.0582 0.596687 83.7325 0.399902 84.6664 0.399902C85.6003 0.399902 86.2775 0.599459 86.7007 0.993029C87.1211 1.3866 87.3327 2.01576 87.3327 2.8805ZM86.6725 22.8528H82.5503V7.33449H86.6725V22.8528Z" fill="#00156A"></path><path d="M107.281 7.33398L99.7782 22.8523H96.0708L88.9268 7.33398H93.2408L97.9922 18.4787L102.913 7.33398H107.281Z" fill="#00156A"></path><path d="M124.783 22.8527H121.513L121.101 19.5323C120.46 20.7379 119.501 21.6692 118.228 22.3261C116.956 22.983 115.458 23.31 113.737 23.31C111.869 23.31 110.435 22.9414 109.437 22.2041C108.438 21.4669 107.938 20.4137 107.938 19.0445C107.938 18.1631 108.125 17.3981 108.503 16.7496C108.878 16.101 109.431 15.58 110.165 15.1836C110.842 14.8067 111.604 14.5212 112.444 14.3327C113.288 14.1443 114.724 13.9503 116.758 13.7535C118.443 13.5899 119.557 13.3904 120.096 13.1465C120.635 12.9026 120.906 12.5118 120.906 11.9713V11.9436C120.906 11.259 120.59 10.7435 119.958 10.3915C119.326 10.0395 118.378 9.86489 117.114 9.86489C115.63 9.86489 114.521 10.0977 113.79 10.5661C113.057 11.0345 112.645 11.7718 112.554 12.7806H108.407C108.59 10.8904 109.408 9.43806 110.867 8.42087C112.323 7.40369 114.315 6.89648 116.843 6.89648C119.591 6.89648 121.6 7.35934 122.873 8.28784C124.145 9.21356 124.783 10.6853 124.783 12.7003V22.8527ZM115.029 20.3693C116.66 20.3693 118.051 19.8981 119.205 18.953C120.359 18.0079 120.937 16.9159 120.937 15.6742V15.1337C120.644 15.3665 120.218 15.5716 119.659 15.7407C119.1 15.9126 118.344 16.0511 117.393 16.1592C116.129 16.2867 115.209 16.4114 114.631 16.5362C114.055 16.6609 113.59 16.8244 113.243 17.0212C112.896 17.218 112.648 17.4397 112.501 17.6836C112.354 17.9275 112.281 18.2185 112.281 18.5595V18.5872C112.281 19.1803 112.509 19.6265 112.966 19.9231C113.426 20.2224 114.112 20.3693 115.029 20.3693Z" fill="#00156A"></path><path d="M143.961 18.049C143.961 19.6676 143.264 20.9509 141.873 21.896C140.479 22.8411 138.558 23.3123 136.103 23.3123C133.428 23.3123 131.36 22.8494 129.893 21.9237C128.426 20.998 127.548 19.5983 127.255 17.7275H131.733C131.916 18.5728 132.365 19.1853 133.078 19.5623C133.792 19.9392 134.856 20.1277 136.267 20.1277C137.531 20.1277 138.459 19.9752 139.057 19.6704C139.653 19.3655 139.949 18.8777 139.949 18.2125C139.949 17.6914 139.655 17.3145 139.068 17.0789C138.482 16.8461 137.119 16.6465 134.974 16.4858C132.373 16.289 130.548 15.8344 129.492 15.1221C128.44 14.4126 127.912 13.3622 127.912 11.9791C127.912 10.3965 128.567 9.15485 129.876 8.25407C131.185 7.35607 133.005 6.9043 135.33 6.9043C137.765 6.9043 139.675 7.33113 141.058 8.18756C142.44 9.04121 143.315 10.3328 143.682 12.0595H139.449C139.286 11.3223 138.871 10.7818 138.214 10.4409C137.553 10.1 136.583 9.92813 135.302 9.92813C134.148 9.92813 133.282 10.075 132.706 10.3744C132.128 10.6709 131.84 11.1172 131.84 11.7103C131.84 12.2507 132.136 12.636 132.734 12.8716C133.33 13.1044 134.661 13.304 136.732 13.4647C139.497 13.6975 141.393 14.1632 142.42 14.8561C143.447 15.5434 143.961 16.6077 143.961 18.049Z" fill="#00156A"></path><path d="M155.337 23.3131C152.406 23.3131 150.185 22.6396 148.673 21.2898C147.163 19.94 146.407 17.9528 146.407 15.3253V15.0814C146.407 12.562 147.223 10.5692 148.853 9.10301C150.484 7.63682 152.662 6.90234 155.394 6.90234C158.159 6.90234 160.348 7.63128 161.959 9.08915C163.57 10.547 164.377 12.5454 164.377 15.0814V15.3253C164.377 17.8447 163.584 19.807 162.002 21.2094C160.413 22.6119 158.193 23.3131 155.337 23.3131ZM155.391 19.9373C156.985 19.9373 158.198 19.5409 159.031 18.751C159.863 17.9583 160.28 16.8081 160.28 15.2948V15.0786C160.28 13.496 159.863 12.2848 159.031 11.4478C158.198 10.6108 156.993 10.1923 155.416 10.1923C153.859 10.1923 152.654 10.6163 151.802 11.4617C150.95 12.307 150.524 13.5127 150.524 15.0786V15.2948C150.524 16.8053 150.941 17.9583 151.774 18.751C152.612 19.5437 153.816 19.9373 155.391 19.9373Z" fill="#00156A"></path><path d="M177.456 7.33436V10.7351H173.088L173.06 22.8527H169.214V10.7351H165.806V7.33436H169.214V6.66086C169.214 4.52117 169.654 3.01618 170.534 2.15421C171.415 1.28946 172.933 0.859863 175.097 0.859863H177.487V4.07217H175.562C174.518 4.07217 173.844 4.24678 173.542 4.59878C173.24 4.95077 173.088 5.71851 173.088 6.90754V7.33991H177.456V7.33436Z" fill="#00156A"></path><path d="M190.806 19.2908H192.454V22.8524H189.762C187.361 22.8524 185.719 22.384 184.83 21.4499C183.942 20.5159 183.499 18.7227 183.499 16.0785V10.7875H179.87V7.52254C180.437 7.52254 180.86 7.517 181.134 7.50868C181.408 7.50037 181.673 7.48651 181.93 7.46711C182.57 7.44771 183.005 7.30913 183.236 7.04859C183.465 6.78806 183.626 6.27808 183.716 5.5242C183.769 5.21933 183.812 4.83684 183.84 4.37675C183.868 3.91666 183.871 3.50924 183.854 3.14893H187.262V7.3313H192.454V10.7875H187.262V15.4023C187.262 17.0929 187.463 18.1656 187.866 18.6146C188.27 19.0663 189.249 19.2908 190.806 19.2908Z" fill="#00156A"></path></g><defs><clipPath id="clip0_2593_254"><rect width="191.667" height="25" fill="white" transform="translate(0.790039 0.396973)"></rect></clipPath></defs></svg>