<svg xmlns="http://www.w3.org/2000/svg" width="1920" height="1192" viewBox="0 0 1920 1192" fill="none"><g clip-path="url(#clip0_1892_5341)"><g opacity="0.5"><path d="M1678 1192L1678 0.44092" stroke="url(#paint0_linear_1892_5341)"></path><path d="M1658 1192L1658 0.44092" stroke="url(#paint1_linear_1892_5341)"></path><path d="M1442 1192L1442 0.44092" stroke="url(#paint2_linear_1892_5341)"></path><path d="M1422 1192L1422 0.44092" stroke="url(#paint3_linear_1892_5341)"></path><path d="M1206 1192L1206 0.44092" stroke="url(#paint4_linear_1892_5341)"></path><path d="M1186 1192L1186 0.44092" stroke="url(#paint5_linear_1892_5341)"></path><path d="M970 1192L970 0.44092" stroke="url(#paint6_linear_1892_5341)"></path><path d="M950 1192L950 0.44092" stroke="url(#paint7_linear_1892_5341)"></path><path d="M734 1192L734 0.44092" stroke="url(#paint8_linear_1892_5341)"></path><path d="M714 1192L714 0.44092" stroke="url(#paint9_linear_1892_5341)"></path><path d="M498 1192L498 0.44092" stroke="url(#paint10_linear_1892_5341)"></path><path d="M478 1192L478 0.44092" stroke="url(#paint11_linear_1892_5341)"></path><path d="M262 1192L262 0.440676" stroke="url(#paint12_linear_1892_5341)"></path><path d="M242 1192L242 0.440676" stroke="url(#paint13_linear_1892_5341)"></path></g><g opacity="0.7"><g filter="url(#filter0_f_1892_5341)"><path d="M247.408 1476.67C381.382 1633.59 627.844 1724.88 377.837 1790.02C127.83 1855.17 -183.447 1780.76 -317.421 1623.84C-451.394 1466.91 -357.33 1286.89 -107.324 1221.75C142.683 1156.61 113.435 1319.74 247.408 1476.67Z" fill="#75D2FB"></path></g><g filter="url(#filter1_f_1892_5341)"><ellipse cx="237.097" cy="445.887" rx="237.097" ry="445.887" transform="matrix(-0.249696 -0.968324 0.996918 -0.0784554 258.88 1925.65)" fill="#5FA2FF"></ellipse></g></g><g opacity="0.7"><g filter="url(#filter2_f_1892_5341)"><path d="M1533.41 2084.39C1852.35 2038.95 2062.2 1660.21 2002.12 1238.44C1942.03 816.679 1755.16 1356.7 1436.22 1402.13C1117.28 1447.57 787.043 981.214 847.125 1402.98C907.208 1824.74 1214.47 2129.82 1533.41 2084.39Z" fill="#D9D3FF"></path></g><g filter="url(#filter3_f_1892_5341)"><ellipse cx="237.097" cy="445.887" rx="237.097" ry="445.887" transform="matrix(-0.249696 -0.968324 0.996918 -0.0784554 911.88 1788.65)" fill="#D3FEE8"></ellipse></g></g><path d="M140.485 107.31C155.863 122.876 164.502 143.987 164.502 166L82.502 166L82.502 83C104.25 83 125.107 91.7446 140.485 107.31Z" fill="#C5E8FF"></path><path d="M24.314 141.686C8.74851 126.12 0.00390336 105.009 0.00390625 82.9961L83.0038 82.9961L83.0038 165.996C60.9909 165.996 39.8795 157.251 24.314 141.686Z" fill="#D9D3FF"></path><path d="M58.6898 58.6899C43.1243 74.2554 22.0129 83 0 83L1.20153e-05 7.62939e-05L82.9999 9.51808e-05C82.9999 22.013 74.2553 43.1244 58.6898 58.6899Z" fill="#FFD4EE"></path></g><defs><filter id="filter0_f_1892_5341" x="-998.421" y="587.041" width="2103.78" height="1846.57" color-interpolation-filters="sRGB"><feGaussianBlur stdDeviation="310"></feGaussianBlur></filter><filter id="filter1_f_1892_5341" x="-224.299" y="1008.81" width="1736.98" height="1304.54" color-interpolation-filters="sRGB"><feGaussianBlur stdDeviation="210"></feGaussianBlur></filter><filter id="filter2_f_1892_5341" x="519.994" y="758.394" width="1812.39" height="1650.47" color-interpolation-filters="sRGB"><feGaussianBlur stdDeviation="160"></feGaussianBlur></filter><filter id="filter3_f_1892_5341" x="428.701" y="871.813" width="1736.98" height="1304.54" color-interpolation-filters="sRGB"><feGaussianBlur stdDeviation="210"></feGaussianBlur></filter><linearGradient id="paint0_linear_1892_5341" x1="1677.5" y1="1192" x2="1677.5" y2="0.440918" gradientUnits="userSpaceOnUse"><stop stop-color="#B2DBFA" stop-opacity="0"></stop><stop offset="1" stop-color="#B2DBFA"></stop></linearGradient><linearGradient id="paint1_linear_1892_5341" x1="1657.5" y1="1192" x2="1657.5" y2="0.440918" gradientUnits="userSpaceOnUse"><stop stop-color="#B2DBFA" stop-opacity="0"></stop><stop offset="1" stop-color="#B2DBFA"></stop></linearGradient><linearGradient id="paint2_linear_1892_5341" x1="1441.5" y1="1192" x2="1441.5" y2="0.440918" gradientUnits="userSpaceOnUse"><stop stop-color="#B2DBFA" stop-opacity="0"></stop><stop offset="1" stop-color="#B2DBFA"></stop></linearGradient><linearGradient id="paint3_linear_1892_5341" x1="1421.5" y1="1192" x2="1421.5" y2="0.440918" gradientUnits="userSpaceOnUse"><stop stop-color="#B2DBFA" stop-opacity="0"></stop><stop offset="1" stop-color="#B2DBFA"></stop></linearGradient><linearGradient id="paint4_linear_1892_5341" x1="1205.5" y1="1192" x2="1205.5" y2="0.440918" gradientUnits="userSpaceOnUse"><stop stop-color="#B2DBFA" stop-opacity="0"></stop><stop offset="1" stop-color="#B2DBFA"></stop></linearGradient><linearGradient id="paint5_linear_1892_5341" x1="1185.5" y1="1192" x2="1185.5" y2="0.440918" gradientUnits="userSpaceOnUse"><stop stop-color="#B2DBFA" stop-opacity="0"></stop><stop offset="1" stop-color="#B2DBFA"></stop></linearGradient><linearGradient id="paint6_linear_1892_5341" x1="969.5" y1="1192" x2="969.5" y2="0.440918" gradientUnits="userSpaceOnUse"><stop stop-color="#B2DBFA" stop-opacity="0"></stop><stop offset="1" stop-color="#B2DBFA"></stop></linearGradient><linearGradient id="paint7_linear_1892_5341" x1="949.5" y1="1192" x2="949.5" y2="0.440918" gradientUnits="userSpaceOnUse"><stop stop-color="#B2DBFA" stop-opacity="0"></stop><stop offset="1" stop-color="#B2DBFA"></stop></linearGradient><linearGradient id="paint8_linear_1892_5341" x1="733.5" y1="1192" x2="733.5" y2="0.440918" gradientUnits="userSpaceOnUse"><stop stop-color="#B2DBFA" stop-opacity="0"></stop><stop offset="1" stop-color="#B2DBFA"></stop></linearGradient><linearGradient id="paint9_linear_1892_5341" x1="713.5" y1="1192" x2="713.5" y2="0.440918" gradientUnits="userSpaceOnUse"><stop stop-color="#B2DBFA" stop-opacity="0"></stop><stop offset="1" stop-color="#B2DBFA"></stop></linearGradient><linearGradient id="paint10_linear_1892_5341" x1="497.5" y1="1192" x2="497.5" y2="0.440918" gradientUnits="userSpaceOnUse"><stop stop-color="#B2DBFA" stop-opacity="0"></stop><stop offset="1" stop-color="#B2DBFA"></stop></linearGradient><linearGradient id="paint11_linear_1892_5341" x1="477.5" y1="1192" x2="477.5" y2="0.440918" gradientUnits="userSpaceOnUse"><stop stop-color="#B2DBFA" stop-opacity="0"></stop><stop offset="1" stop-color="#B2DBFA"></stop></linearGradient><linearGradient id="paint12_linear_1892_5341" x1="261.5" y1="1192" x2="261.5" y2="0.440674" gradientUnits="userSpaceOnUse"><stop stop-color="#B2DBFA" stop-opacity="0"></stop><stop offset="1" stop-color="#B2DBFA"></stop></linearGradient><linearGradient id="paint13_linear_1892_5341" x1="241.5" y1="1192" x2="241.5" y2="0.440674" gradientUnits="userSpaceOnUse"><stop stop-color="#B2DBFA" stop-opacity="0"></stop><stop offset="1" stop-color="#B2DBFA"></stop></linearGradient><clipPath id="clip0_1892_5341"><rect width="1920" height="1192" fill="white"></rect></clipPath></defs></svg>